<svg width="64" height="64" viewBox="0 0 64 64" fill="none" xmlns="http://www.w3.org/2000/svg">
    <path
        d="M0 32C0 14.3269 14.3269 0 32 0C49.6731 0 64 14.3269 64 32C64 49.6731 49.6731 64 32 64C14.3269 64 0 49.6731 0 32Z"
        fill="#95F31F" />
    <path
        d="M29.5953 18.1772L32.6542 28.1172L41.102 21.2766L44.7594 27.3919L36.2651 31.8126L45.338 36.9646L40.8235 42.6063L33.3109 36.2797L33.2469 45.8172L25.8462 45.3858L28.2359 35.2815L19.2229 38.3622L17.4372 31.5009L28.0058 30.1256L22.8339 21.0984L29.5953 18.1772Z"
        fill="#0047FD" />
</svg>